<svg width="31" height="33" viewBox="0 0 31 33" fill="none" xmlns="http://www.w3.org/2000/svg">
<path d="M0.145821 26.4024C8.60344 34.4178 22.0113 34.4178 30.4689 26.4024C30.6608 26.22 30.6608 25.9237 30.4689 25.7338L27.1457 22.4517C20.6068 28.9248 10.0002 28.9248 3.45365 22.4517L0.138146 25.7414C-0.0460487 25.9237 -0.0460487 26.2276 0.138146 26.41L0.145821 26.4024Z" fill="#1548D5"/>
<path d="M18.4773 16.8126C18.6883 15.0796 17.4401 13.5054 15.6895 13.2966C13.9388 13.0878 12.3487 14.3234 12.1378 16.0565C11.9268 17.7895 13.175 19.3636 14.9256 19.5724C16.6763 19.7812 18.2664 18.5456 18.4773 16.8126Z" fill="#0076E6"/>
<path d="M30.4767 6.45125C22.0191 -1.56415 8.61128 -1.56415 0.153668 6.45125C-0.0382018 6.63359 -0.0382018 6.9299 0.153668 7.11983L3.47685 10.402C10.0158 3.92887 20.6223 3.92887 27.1689 10.402L30.4921 7.11983C30.6763 6.93749 30.6763 6.63359 30.4921 6.45125H30.4767Z" fill="#1548D5"/>
</svg>
